HIERARCHY
ROOT Hips
{
    OFFSET   0.000000   0.000000   0.000000
    CHANNELS 6 Xposition Yposition Zposition Zrotation Xrotation Yrotation
    JOINT Chest
    {
        OFFSET   0.000000   8.007230   0.000000
        CHANNELS 3 Zrotation Xrotation Yrotation
        JOINT Chest2
        {
            OFFSET   0.000000  22.077100   0.000000
            CHANNELS 3 Zrotation Xrotation Yrotation
            JOINT Neck
            {
                OFFSET   0.000000  23.255100   0.000000
                CHANNELS 3 Zrotation Xrotation Yrotation
                JOINT Head
                {
                    OFFSET   0.000000  14.370100   1.956600
                    CHANNELS 3 Zrotation Xrotation Yrotation
                    End Site
                    {
                        OFFSET   0.000000  19.566000   0.000000
                    }
                }
            }
            JOINT LeftCollar
            {
                OFFSET   3.911900  19.017000  -0.467063
                CHANNELS 3 Zrotation Xrotation Yrotation
                JOINT LeftShoulder
                {
                    OFFSET  10.383700   0.000000   0.000000
                    CHANNELS 3 Zrotation Xrotation Yrotation
                    JOINT LeftElbow
                    {
                        OFFSET  26.662100   0.001193   0.000980
                        CHANNELS 3 Zrotation Xrotation Yrotation
                        JOINT LeftWrist
                        {
                            OFFSET  28.869000  -0.000059  -0.000082
                            CHANNELS 3 Zrotation Xrotation Yrotation
                            JOINT LeftFinger0
                            {
                                OFFSET   2.044650  -2.323450   3.252850
                                CHANNELS 3 Zrotation Xrotation Yrotation
                                JOINT LeftFinger01
                                {
                                    OFFSET   3.088130   0.000000   0.000000
                                    CHANNELS 3 Zrotation Xrotation Yrotation
                                    JOINT LeftFinger02
                                    {
                                        OFFSET   2.639460   0.000000   0.000000
                                        CHANNELS 3 Zrotation Xrotation Yrotation
                                        End Site
                                        {
                                            OFFSET   2.582190   0.000000   0.000000
                                        }
                                    }
                                }
                            }
                            JOINT LeftFinger1
                            {
                                OFFSET   8.364480   0.000000   3.252850
                                CHANNELS 3 Zrotation Xrotation Yrotation
                                JOINT LeftFinger11
                                {
                                    OFFSET   4.646930   0.000000   0.000000
                                    CHANNELS 3 Zrotation Xrotation Yrotation
                                    JOINT LeftFinger12
                                    {
                                        OFFSET   2.323470   0.000000   0.000000
                                        CHANNELS 3 Zrotation Xrotation Yrotation
                                        End Site
                                        {
                                            OFFSET   2.273050   0.000000   0.000000
                                        }
                                    }
                                }
                            }
                            JOINT LeftFinger2
                            {
                                OFFSET   8.364490   0.000016   1.078090
                                CHANNELS 3 Zrotation Xrotation Yrotation
                                JOINT LeftFinger21
                                {
                                    OFFSET   5.111610   0.000000   0.000000
                                    CHANNELS 3 Zrotation Xrotation Yrotation
                                    JOINT LeftFinger22
                                    {
                                        OFFSET   2.788150   0.000016   0.000000
                                        CHANNELS 3 Zrotation Xrotation Yrotation
                                        End Site
                                        {
                                            OFFSET   2.727660   0.000000   0.000000
                                        }
                                    }
                                }
                            }
                            JOINT LeftFinger3
                            {
                                OFFSET   7.899780   0.000015  -1.078090
                                CHANNELS 3 Zrotation Xrotation Yrotation
                                JOINT LeftFinger31
                                {
                                    OFFSET   4.646930   0.000000   0.000000
                                    CHANNELS 3 Zrotation Xrotation Yrotation
                                    JOINT LeftFinger32
                                    {
                                        OFFSET   2.323470   0.000000   0.000000
                                        CHANNELS 3 Zrotation Xrotation Yrotation
                                        End Site
                                        {
                                            OFFSET   2.273050   0.000000   0.000000
                                        }
                                    }
                                }
                            }
                            JOINT LeftFinger4
                            {
                                OFFSET   7.435090   0.000000  -3.252850
                                CHANNELS 3 Zrotation Xrotation Yrotation
                                JOINT LeftFinger41
                                {
                                    OFFSET   3.717550   0.000000   0.000000
                                    CHANNELS 3 Zrotation Xrotation Yrotation
                                    JOINT LeftFinger42
                                    {
                                        OFFSET   1.858770   0.000000   0.000000
                                        CHANNELS 3 Zrotation Xrotation Yrotation
                                        End Site
                                        {
                                            OFFSET   1.818440   0.000000   0.000000
                                        }
                                    }
                                }
                            }
                        }
                    }
                }
            }
            JOINT RightCollar
            {
                OFFSET  -3.911910  19.017000  -0.467062
                CHANNELS 3 Zrotation Xrotation Yrotation
                JOINT RightShoulder
                {
                    OFFSET -10.383700   0.000014   0.000000
                    CHANNELS 3 Zrotation Xrotation Yrotation
                    JOINT RightElbow
                    {
                        OFFSET -26.662100   0.001225   0.001091
                        CHANNELS 3 Zrotation Xrotation Yrotation
                        JOINT RightWrist
                        {
                            OFFSET -28.869000  -0.000020  -0.000085
                            CHANNELS 3 Zrotation Xrotation Yrotation
                            JOINT RightFinger0
                            {
                                OFFSET  -2.044650  -2.323490   3.252850
                                CHANNELS 3 Zrotation Xrotation Yrotation
                                JOINT RightFinger01
                                {
                                    OFFSET  -3.088130   0.000000   0.000000
                                    CHANNELS 3 Zrotation Xrotation Yrotation
                                    JOINT RightFinger02
                                    {
                                        OFFSET  -2.639460   0.000000   0.000000
                                        CHANNELS 3 Zrotation Xrotation Yrotation
                                        End Site
                                        {
                                            OFFSET  -2.582190   0.000000   0.000000
                                        }
                                    }
                                }
                            }
                            JOINT RightFinger1
                            {
                                OFFSET  -8.364480   0.000000   3.252850
                                CHANNELS 3 Zrotation Xrotation Yrotation
                                JOINT RightFinger11
                                {
                                    OFFSET  -4.646930   0.000000   0.000000
                                    CHANNELS 3 Zrotation Xrotation Yrotation
                                    JOINT RightFinger12
                                    {
                                        OFFSET  -2.323470   0.000000   0.000000
                                        CHANNELS 3 Zrotation Xrotation Yrotation
                                        End Site
                                        {
                                            OFFSET  -2.273050   0.000000   0.000000
                                        }
                                    }
                                }
                            }
                            JOINT RightFinger2
                            {
                                OFFSET  -8.364480   0.000000   1.078090
                                CHANNELS 3 Zrotation Xrotation Yrotation
                                JOINT RightFinger21
                                {
                                    OFFSET  -5.111620   0.000000   0.000000
                                    CHANNELS 3 Zrotation Xrotation Yrotation
                                    JOINT RightFinger22
                                    {
                                        OFFSET  -2.788160   0.000000   0.000000
                                        CHANNELS 3 Zrotation Xrotation Yrotation
                                        End Site
                                        {
                                            OFFSET  -2.727660   0.000000   0.000000
                                        }
                                    }
                                }
                            }
                            JOINT RightFinger3
                            {
                                OFFSET  -7.899780   0.000000  -1.078090
                                CHANNELS 3 Zrotation Xrotation Yrotation
                                JOINT RightFinger31
                                {
                                    OFFSET  -4.646930   0.000000   0.000000
                                    CHANNELS 3 Zrotation Xrotation Yrotation
                                    JOINT RightFinger32
                                    {
                                        OFFSET  -2.323470   0.000000   0.000000
                                        CHANNELS 3 Zrotation Xrotation Yrotation
                                        End Site
                                        {
                                            OFFSET  -2.273050   0.000000   0.000000
                                        }
                                    }
                                }
                            }
                            JOINT RightFinger4
                            {
                                OFFSET  -7.435090   0.000000  -3.252850
                                CHANNELS 3 Zrotation Xrotation Yrotation
                                JOINT RightFinger41
                                {
                                    OFFSET  -3.717550   0.000000   0.000000
                                    CHANNELS 3 Zrotation Xrotation Yrotation
                                    JOINT RightFinger42
                                    {
                                        OFFSET  -1.858760   0.000000   0.000000
                                        CHANNELS 3 Zrotation Xrotation Yrotation
                                        End Site
                                        {
                                            OFFSET  -1.818440   0.000000   0.000000
                                        }
                                    }
                                }
                            }
                        }
                    }
                }
            }
        }
    }
    JOINT LeftHip
    {
        OFFSET   9.783030   0.000000   0.000000
        CHANNELS 3 Zrotation Xrotation Yrotation
        JOINT LeftKnee
        {
            OFFSET   0.000063 -41.789100   0.000608
            CHANNELS 3 Zrotation Xrotation Yrotation
            JOINT LeftAnkle
            {
                OFFSET   0.000048 -41.133200  -0.000184
                CHANNELS 3 Zrotation Xrotation Yrotation
                JOINT LeftToe
                {
                    OFFSET   0.000000  -6.358960  14.674500
                    CHANNELS 3 Zrotation Xrotation Yrotation
                    End Site
                    {
                        OFFSET   0.000000   0.000000   3.913200
                    }
                }
            }
        }
    }
    JOINT RightHip
    {
        OFFSET  -9.783030   0.000000   0.000000
        CHANNELS 3 Zrotation Xrotation Yrotation
        JOINT RightKnee
        {
            OFFSET   0.000071 -41.789100   0.001239
            CHANNELS 3 Zrotation Xrotation Yrotation
            JOINT RightAnkle
            {
                OFFSET   0.000037 -41.133200  -0.000166
                CHANNELS 3 Zrotation Xrotation Yrotation
                JOINT RightToe
                {
                    OFFSET   0.000000  -6.358960  14.674500
                    CHANNELS 3 Zrotation Xrotation Yrotation
                    End Site
                    {
                        OFFSET   0.000000   0.000000   3.913200
                    }
                }
            }
        }
    }
}
MOTION
Frames: 5
Frame Time:   0.016667
  1.508110  89.499900   1.931060  -4.368150  -7.694440  -5.464470   1.171850   4.496450   0.332925   2.328200   8.998750   0.575897   0.499652   0.552859  -0.011815   0.814628   1.120800   0.603452  -6.701540  -0.620203   0.599498 -74.088900  15.044300   2.286030  -0.746408  -8.873010 -20.801300  15.788900 -12.112900   9.580510  40.670100  34.645600 -62.211100 -31.525500   0.001514   0.001004 -10.762800   0.002330  -0.007450 -28.946300   6.849460 -12.168300 -24.281400  -0.000251   0.001193 -16.997000  -0.014973   0.000407 -28.550400   1.635780  -3.002790 -37.359700   0.002589   0.004299 -24.881600   0.001736   0.001040 -28.159700   1.615500  -3.013750 -33.488200   0.003499  -0.003066 -22.303100  -0.005378  -0.002788 -30.067600   1.243780  -2.130590 -45.136500  -0.010707   0.001153 -30.061000   0.002879  -0.003608   9.102760  -0.041768   7.407400  70.935300   4.338910  -5.722010  -3.095640 -15.603700  16.427100 -12.064100  -0.687063  -1.431540 -38.715200  31.950800  64.186900  30.819400   0.003669  -0.002124  10.409700   0.000283   0.000747  31.507200   6.562630  10.560000  26.275700   0.012234  -0.001911  18.393000   0.004122  -0.002708  28.671900   3.309840   6.031440  43.187300   0.000461   0.004791  28.762800   0.008528  -0.003212  28.740700   2.317280   4.223720  43.012500  -0.000674   0.004209  28.646400   0.008090  -0.004687  42.777000  -1.928790  -2.082570  64.218000  -0.002662  -0.002627  42.769200  -0.002493  -0.003232   1.951260  11.695200   2.542940   0.630033   0.167478   4.192200  -0.040780  -5.005630   5.449600  -0.000000   0.000000   0.000000   3.651180   9.238390  -4.807540  -0.780838   2.383540  -6.279740  -0.708565  -4.300080   2.101090  -0.000000   0.000000   0.000000
  1.499680  89.500000   1.943080  -4.367650  -7.686670  -5.468250   1.171690   4.496100   0.333668   2.327830   8.998110   0.577421   0.499661   0.567589  -0.011793   0.814742   1.150700   0.587699  -6.701920  -0.613444   0.590998 -74.078600  15.062900   2.275250  -0.758830  -8.838290 -20.794100  15.777200 -12.055200   9.563160  40.630800  34.592400 -62.122700 -31.525500   0.001512   0.001003 -10.762800   0.002330  -0.007449 -28.929900   6.835720 -12.152700 -24.266300  -0.000245   0.001197 -16.986500  -0.014977   0.000407 -28.551100   1.627530  -2.987890 -37.329500   0.002598   0.004296 -24.861500   0.001744   0.001033 -28.160600   1.607260  -2.998840 -33.460200   0.003512  -0.003066 -22.284500  -0.005382  -0.002785 -30.053300   1.243840  -2.136070 -45.115000  -0.010699   0.001155 -30.046700   0.002877  -0.003612   9.102690  -0.041548   7.400640  70.970400   4.349240  -5.739010  -2.971180 -15.660900  16.496100 -12.202400  -0.628469  -1.307820 -38.938900  32.241200  64.449900  30.692500   0.003549  -0.002041  10.346300   0.000284   0.000730  31.433700   6.670820  10.759700  26.233200   0.012252  -0.001912  18.363200   0.004114  -0.002706  28.784500   3.395200   6.156620  43.410000   0.000451   0.004852  28.911100   0.008520  -0.003190  28.858200   2.466970   4.472390  43.318200  -0.000684   0.004271  28.849900   0.008081  -0.004681  42.857900  -1.955170  -2.104410  64.340600  -0.002633  -0.002599  42.850900  -0.002464  -0.003214   1.955940  11.704800   2.542980   0.630303   0.156229   4.194200  -0.040094  -5.006380   5.449250  -0.000000   0.000000   0.000000   3.651320   9.243380  -4.807660  -0.779797   2.377800  -6.279640  -0.707820  -4.300990   2.108970   0.000000   0.000000   0.000000
  1.486110  89.500200   1.963860  -4.367660  -7.678840  -5.475920   1.170960   4.495760   0.336072   2.326190   8.997460   0.582309   0.499671   0.591908  -0.011739   0.814805   1.199950   0.565924  -6.702360  -0.601291   0.582400 -74.065400  15.100600   2.250600  -0.770831  -8.803740 -20.784000  15.774600 -11.997500   9.545820  40.625200  34.545200 -62.027400 -31.525500   0.001500   0.000994 -10.762800   0.002329  -0.007443 -28.913400   6.821970 -12.137100 -24.250500  -0.000232   0.001207 -16.975400  -0.014989   0.000407 -28.551800   1.619270  -2.972990 -37.299400   0.002626   0.004288 -24.841400   0.001766   0.001016 -28.161400   1.599020  -2.983920 -33.431200   0.003545  -0.003066 -22.265200  -0.005393  -0.002778 -30.032000   1.243910  -2.144240 -45.083000  -0.010675   0.001159 -30.025300   0.002869  -0.003624   9.102570  -0.041208   7.387410  71.038400   4.359330  -5.787170  -2.761460 -15.732300  16.667400 -12.463900  -0.487724  -0.978485 -39.286600  32.699800  64.949200  30.495600   0.003331  -0.001890  10.247800   0.000291   0.000686  31.296100   6.858310  11.111900  26.152600   0.012290  -0.001914  18.306800   0.004095  -0.002700  29.008700   3.549040   6.374360  43.820700   0.000426   0.004956  29.184600   0.008498  -0.003145  29.100800   2.729420   4.895700  43.855000  -0.000711   0.004374  29.207400   0.008060  -0.004667  43.049100  -2.017770  -2.155690  64.630300  -0.002565  -0.002536  43.043800  -0.002400  -0.003169   1.964470  11.719200   2.543010   0.630567   0.144980   4.198810  -0.038979  -5.011610   5.448930   0.000000   0.000000   0.000000   3.652210   9.256910  -4.807950  -0.776372   2.365350  -6.279480  -0.706766  -4.302590   2.120640   0.000000   0.000000  -0.000000
  1.476390  89.499300   1.982100  -4.370600  -7.679590  -5.484810   1.169340   4.496920   0.340952   2.322540   8.999820   0.592194   0.499186   0.610675  -0.011650   0.814248   1.237610   0.557584  -6.701630  -0.586473   0.582333 -74.064700  15.149700   2.213330  -0.762551  -8.806940 -20.778100  15.807300 -11.997400   9.553250  40.659300  34.562700 -62.008600 -31.515400   0.001467   0.000965 -10.757700   0.002332  -0.007415 -28.912800   6.822500 -12.139200 -24.249600  -0.000214   0.001227 -16.974800  -0.015011   0.000411 -28.551200   1.625040  -2.983630 -37.300100   0.002675   0.004274 -24.841900   0.001798   0.000991 -28.160900   1.604670  -2.994620 -33.430000   0.003595  -0.003064 -22.264300  -0.005413  -0.002766 -30.018200   1.243890  -2.149500 -45.062400  -0.010636   0.001163 -30.011500   0.002856  -0.003643   9.102460  -0.040951   7.373200  71.108900   4.340940  -5.861150  -2.573440 -15.739800  16.905100 -12.822500  -0.271383  -0.445234 -39.515000  33.060200  65.479000  30.371100   0.003055  -0.001701  10.185500   0.000320   0.000610  31.129800   7.035080  11.464200  26.042600   0.012339  -0.001921  18.229800   0.004066  -0.002690  29.259300   3.702600   6.581360  44.220000   0.000391   0.005063  29.450500   0.008465  -0.003083  29.398200   2.981960   5.280110  44.334100  -0.000753   0.004477  29.526500   0.008026  -0.004644  43.315700  -2.105160  -2.227110  65.034500  -0.002463  -0.002443  43.313000  -0.002310  -0.003100   1.972380  11.727300   2.542970   0.631834   0.156100   4.205870  -0.041126  -5.027970   5.451100  -0.000000   0.000000   0.000000   3.654240   9.279910  -4.808440  -0.769224   2.347580  -6.279320  -0.708762  -4.303410   2.125940  -0.000000   0.000000   0.000000
  1.467000  89.497800   2.001150  -4.376240  -7.682730  -5.495510   1.167310   4.501330   0.346211   2.318030   9.008740   0.602825   0.497156   0.629571  -0.011549   0.812108   1.275640   0.555272  -6.697910  -0.577049   0.582267 -74.066500  15.197000   2.175110  -0.754700  -8.809980 -20.775000  15.855300 -11.997900   9.572590  40.666300  34.576900 -62.000500 -31.505400   0.001424   0.000928 -10.752700   0.002334  -0.007373 -28.911100   6.826410 -12.145900 -24.249500  -0.000193   0.001252 -16.974700  -0.015038   0.000418 -28.550300   1.636520  -3.004650 -37.305300   0.002736   0.004255 -24.845300   0.001837   0.000960 -28.160400   1.616020  -3.015720 -33.429800   0.003656  -0.003061 -22.264200  -0.005437  -0.002750 -30.011500   1.243760  -2.152070 -45.052300  -0.010586   0.001168 -30.004800   0.002838  -0.003669   9.102340  -0.040814   7.355670  71.194600   4.303930  -5.971060  -2.415010 -15.716500  17.245600 -13.058600  -0.029739   0.213319 -39.669400  33.335500  66.009700  30.258900   0.002878  -0.001579  10.129400   0.000363   0.000522  30.998000   7.197810  11.779400  25.970700   0.012401  -0.001929  18.179500   0.004029  -0.002678  29.565200   3.857850   6.771890  44.690900   0.000348   0.005127  29.764100   0.008422  -0.003021  29.748600   3.219960   5.620460  44.861100  -0.000804   0.004538  29.877500   0.007984  -0.004618  43.658600  -2.218600  -2.318140  65.554600  -0.002350  -0.002339  43.659400  -0.002209  -0.003015   1.981970  11.734000   2.542900   0.632064   0.181248   4.213220  -0.045739  -5.053650   5.456450  -0.000000   0.000000  -0.000000   3.656840   9.306750  -4.808970  -0.761766   2.329900  -6.279180  -0.713262  -4.305610   2.131340   0.000000   0.000000  -0.000000
